<svg width="26" height="27" viewBox="0 0 26 27" fill="none" xmlns="http://www.w3.org/2000/svg">
<g clip-path="url(#clip0_92_27233)">
<path d="M20.6331 14.6089L23.686 14.6089C24.1075 14.6089 24.4492 14.2672 24.4492 13.8456L24.4492 1.6342C24.4492 1.21272 24.1075 0.87096 23.686 0.87096L20.6331 0.87096C20.2116 0.87096 19.8699 1.21267 19.8699 1.6342L19.8699 13.8457C19.8699 14.2672 20.2115 14.6089 20.6331 14.6089Z" fill="white"/>
<path d="M1.56619 12.5859C1.70081 13.7698 2.80678 14.609 3.99836 14.609L9.94864 14.609C9.44296 15.5145 9.17153 18.0755 9.18357 19.1217C9.20353 20.8535 10.6376 22.2412 12.3694 22.2412L12.9992 22.2412C13.4211 22.2412 13.7625 21.8999 13.7625 21.478C13.7625 19.7131 14.4497 16.5275 15.7458 15.2313C16.6181 14.359 17.3639 14.0428 18.3418 13.5541L18.3418 2.10206C16.8446 1.60304 14.9437 0.871029 12.0463 0.871028L7.05365 0.871028C5.4086 0.871028 4.12739 2.39461 4.76485 4.00438C3.79366 4.26895 3.07744 5.15965 3.07744 6.21356C3.07744 6.51098 3.13482 6.79566 3.23842 7.05729C1.60179 7.5032 0.999374 9.52403 2.1353 10.7929C1.71798 11.2591 1.48784 11.8968 1.56619 12.5859Z" fill="white"/>
</g>
<defs>
<clipPath id="clip0_92_27233">
<rect width="26" height="26" fill="white" transform="translate(26 26.8711) rotate(-180)"/>
</clipPath>
</defs>
</svg>
