<svg width="27" height="26" viewBox="0 0 27 26" fill="none" xmlns="http://www.w3.org/2000/svg">
<g clip-path="url(#clip0_92_27242)">
<path d="M6.23803 12.2622H3.18512C2.76363 12.2622 2.42188 12.6039 2.42188 13.0254V25.2369C2.42188 25.6584 2.76358 26.0001 3.18512 26.0001H6.23798C6.65946 26.0001 7.00122 25.6584 7.00122 25.2369V13.0254C7.00122 12.6039 6.65956 12.2622 6.23803 12.2622Z" fill="white"/>
<path d="M25.3049 14.2852C25.1703 13.1012 24.0643 12.2621 22.8727 12.2621H16.9225C17.4281 11.3566 17.6996 8.79556 17.6875 7.74937C17.6676 6.01763 16.2335 4.62988 14.5017 4.62988H13.8719C13.45 4.62988 13.1086 4.97123 13.1086 5.39312C13.1086 7.15802 12.4214 10.3436 11.1253 11.6398C10.253 12.5121 9.50719 12.8282 8.5293 13.317V24.769C10.0265 25.2681 11.9274 26.0001 14.8248 26.0001H19.8174C21.4625 26.0001 22.7437 24.4765 22.1062 22.8667C23.0774 22.6021 23.7937 21.7114 23.7937 20.6575C23.7937 20.3601 23.7363 20.0754 23.6327 19.8138C25.2693 19.3679 25.8717 17.3471 24.7358 16.0782C25.1531 15.612 25.3833 14.9743 25.3049 14.2852Z" fill="white"/>
</g>
<defs>
<clipPath id="clip0_92_27242">
<rect width="26" height="26" fill="white" transform="translate(0.871094)"/>
</clipPath>
</defs>
</svg>
